<svg width="282" height="282" viewBox="0 0 282 282" fill="none" xmlns="http://www.w3.org/2000/svg">
<g filter="url(#filter0_d)">
<path d="M208.163 122.954H74.7405C68.9893 122.954 64.3268 118.292 64.3268 112.54V110.49C64.3268 104.739 68.989 100.076 74.7405 100.076H208.162C213.914 100.076 218.576 104.739 218.576 110.49V112.54C218.576 118.292 213.914 122.954 208.163 122.954Z" fill="#E94444"/>
<path d="M208.163 82.0598H74.7405C68.9893 82.0598 64.3268 77.3976 64.3268 71.646V69.5958C64.3268 63.8445 68.989 59.182 74.7405 59.182H208.162C213.914 59.182 218.576 63.8442 218.576 69.5958V71.646C218.576 77.3976 213.914 82.0598 208.163 82.0598Z" fill="#9E5528"/>
<path d="M218.575 110.489V112.54C218.575 118.292 213.915 122.956 208.163 122.956H202.069C207.822 122.956 212.482 118.292 212.482 112.54V110.489C212.482 104.739 207.821 100.076 202.069 100.076H208.163C213.915 100.076 218.575 104.74 218.575 110.489Z" fill="#D83131"/>
<path d="M218.575 69.5954V71.6462C218.575 77.3987 213.915 82.0591 208.163 82.0591H202.069C207.822 82.0591 212.482 77.3987 212.482 71.6462V69.5954C212.482 63.846 207.821 59.1826 202.069 59.1826H208.163C213.915 59.1826 218.575 63.846 218.575 69.5954Z" fill="#904D24"/>
<path d="M141.452 2.32697C89.4403 3.07989 71.9656 31.2933 66.1963 47.6864C64.2197 53.3036 68.434 59.182 74.3892 59.182H141.452H208.513C214.512 59.182 218.673 53.2443 216.672 47.5886C210.868 31.1816 193.36 3.07834 141.452 2.32697Z" fill="#FE9738"/>
<path d="M208.513 59.1826H207.772C209.792 56.9301 210.623 53.6505 209.497 50.461C203.692 34.0508 186.183 5.94945 134.275 5.1987C120.847 5.39112 109.717 7.41713 100.502 10.5974C110.952 5.79769 124.331 2.574 141.452 2.32571C193.36 3.07957 210.868 31.1809 216.674 47.588C218.672 53.244 214.511 59.1826 208.513 59.1826Z" fill="#FE860A"/>
<path d="M208.163 122.954H141.452H74.7405C74.7405 122.954 70.1394 145.172 96.3225 153.912C100.808 155.409 105.49 156.106 110.186 156.106H141.452H172.717C177.413 156.106 182.095 155.409 186.58 153.912C212.764 145.172 208.163 122.954 208.163 122.954Z" fill="#FE9738"/>
<path d="M186.58 153.911C182.094 155.41 177.412 156.108 172.718 156.108H165.65C170.347 156.108 175.029 155.41 179.515 153.911C205.696 145.171 201.095 122.956 201.095 122.956H208.163C208.163 122.956 212.764 145.171 186.58 153.911Z" fill="#FE860A"/>
<path d="M208.407 104.224C208.407 109.423 202.366 112.242 198.349 108.941C196.698 107.584 194.748 106.509 191.658 106.509C183.284 106.509 183.284 113.142 174.911 113.142C166.537 113.142 166.537 106.509 158.163 106.509C149.79 106.509 149.79 113.142 141.417 113.142C133.044 113.142 133.044 106.509 124.671 106.509C116.297 106.509 116.297 113.142 107.923 113.142C99.5502 113.142 99.5502 106.509 91.1767 106.509C88.0877 106.509 86.1384 107.583 84.4879 108.94C80.4709 112.241 74.4298 109.423 74.4298 104.223V91.9189H208.407V104.224H208.407Z" fill="#BBEC6C"/>
<path d="M208.408 91.9192V104.225C208.408 109.09 203.118 111.87 199.149 109.502C200.902 108.478 202.162 106.601 202.162 104.225V91.9192H208.408Z" fill="#A2E62E"/>
<path d="M74.4966 82.0598V92.0104H88.8596C91.8478 92.0104 94.2698 94.4328 94.2698 97.4206V126.079C94.2698 129.9 97.3665 132.996 101.187 132.996C105.007 132.996 108.104 129.9 108.104 126.079V97.4206C108.104 94.4325 110.526 92.0104 113.514 92.0104H208.406V82.0598H74.4966Z" fill="#FEE45A"/>
<path d="M202.162 82.0589H208.408V92.0093H202.162V82.0589Z" fill="#FEDF30"/>
<path d="M119.983 26.2521C120.81 26.2521 121.611 25.8099 122.032 25.0309L124.051 21.2957C124.662 20.1651 124.241 18.7533 123.11 18.1422C121.978 17.5311 120.567 17.9529 119.956 19.0829L117.938 22.818C117.327 23.9487 117.748 25.3608 118.879 25.9716C119.23 26.1618 119.609 26.2521 119.983 26.2521Z" fill="#070D0D" fill-opacity="0.72"/>
<path d="M143.751 24.1799V19.9342C143.751 18.649 142.709 17.6071 141.424 17.6071C140.138 17.6071 139.097 18.649 139.097 19.9342V24.1799C139.097 25.4651 140.138 26.507 141.424 26.507C142.709 26.507 143.751 25.4651 143.751 24.1799Z" fill="#070D0D" fill-opacity="0.72"/>
<path d="M162.921 26.2208C163.317 26.2208 163.719 26.1193 164.086 25.9064C165.198 25.2614 165.576 23.8375 164.931 22.7258L162.801 19.053C162.156 17.9413 160.733 17.563 159.621 18.2076C158.509 18.8526 158.131 20.2765 158.775 21.3882L160.905 25.061C161.337 25.8049 162.118 26.2208 162.921 26.2208Z" fill="#070D0D" fill-opacity="0.72"/>
<path d="M220.903 71.646V69.5958C220.903 65.2492 218.714 61.4061 215.382 59.1057C216.166 58.4723 216.873 57.7262 217.478 56.8702C219.543 53.951 220.061 50.191 218.866 46.8127C215.98 38.6534 209.981 26.9036 197.795 17.262C183.744 6.14563 164.799 0.337592 141.485 0.000232768C141.463 -7.75895e-05 141.44 -7.75895e-05 141.418 0.000232768C130.881 0.152618 121.12 1.44184 112.406 3.83191C111.167 4.17175 110.437 5.45229 110.777 6.69155C111.117 7.93081 112.397 8.66077 113.637 8.3203C121.962 6.03669 131.32 4.80333 141.451 4.65436C191.796 5.39611 208.815 32.3569 214.478 48.3648C215.18 50.3499 214.888 52.4706 213.678 54.1834C212.477 55.8814 210.595 56.8553 208.513 56.8553H74.3892C72.2995 56.8553 70.407 55.8758 69.1975 54.1676C68.0023 52.4802 67.7087 50.3992 68.3915 48.4589C72.5196 36.7286 81.9995 20.8333 103.718 11.7249C104.903 11.2277 105.461 9.86434 104.964 8.67908C104.467 7.49351 103.103 6.93642 101.918 7.43299C91.3431 11.868 82.4942 18.2757 75.6179 26.4778C70.5581 32.5127 66.6498 39.3884 64.0015 46.9139C62.811 50.2974 63.3203 53.9218 65.3997 56.8575C66.0052 57.7128 66.7252 58.4633 67.5272 59.102C64.1914 61.402 62 65.2471 62 69.5958V71.646C62 77.7908 66.3726 82.9331 72.1695 84.1258L72.1229 98.0224C66.3497 99.2331 62 104.362 62 110.49V112.54C62 118.682 66.368 123.822 72.1602 125.018C72.0041 127.467 72.0841 131.441 73.4963 135.863C77.3022 147.781 87.6095 153.457 95.5857 156.12C100.185 157.655 105.098 158.434 110.186 158.434H172.717C177.806 158.434 182.718 157.655 187.318 156.12C195.294 153.457 205.601 147.781 209.407 135.863C210.819 131.442 210.899 127.467 210.743 125.018C216.535 123.822 220.903 118.682 220.903 112.54V110.49C220.903 104.346 216.53 99.208 210.734 98.0156V84.1258C216.531 82.9334 220.903 77.7908 220.903 71.646ZM66.6541 112.54V110.49C66.6541 106.954 68.9387 103.947 72.1071 102.852L72.1025 104.223C72.1025 107.526 73.955 110.454 76.9366 111.863C79.9356 113.281 83.3954 112.849 85.9649 110.737C87.1669 109.75 88.6303 108.836 91.1764 108.836C91.4443 108.836 91.6966 108.846 91.9427 108.862V120.627H74.7405C70.2816 120.627 66.6541 116.999 66.6541 112.54ZM159.387 94.3375H206.08V104.224C206.08 105.732 205.269 107.015 203.911 107.656C202.535 108.306 201.009 108.114 199.826 107.143C198.149 105.764 195.704 104.181 191.658 104.181C186.661 104.181 184.099 106.21 181.839 108.001C179.855 109.573 178.287 110.814 174.911 110.814C171.534 110.814 169.966 109.573 167.982 108.001C165.722 106.211 163.16 104.181 158.163 104.181C153.167 104.181 150.493 106.299 148.345 108.001C146.361 109.573 144.793 110.814 141.417 110.814C138.04 110.814 136.473 109.573 134.489 108.001C132.341 106.299 129.667 104.181 124.671 104.181C119.674 104.181 117.112 106.21 114.852 108.001C113.437 109.121 112.229 110.07 110.431 110.524V97.4206C110.431 95.7205 111.814 94.3375 113.514 94.3375H148.475C149.76 94.3375 150.802 93.2956 150.802 92.0105C150.802 90.7253 149.76 89.6834 148.475 89.6834H113.514C109.247 89.6834 105.777 93.1541 105.777 97.4206V126.079C105.777 128.61 103.718 130.67 101.187 130.67C98.6557 130.67 96.5968 128.61 96.5968 126.079V97.4206C96.5968 93.1541 93.1258 89.6834 88.8596 89.6834H76.8236V84.3868H206.08V89.6834H159.387C158.101 89.6834 157.06 90.7253 157.06 92.0105C157.06 93.2956 158.101 94.3375 159.387 94.3375ZM88.8593 94.3375C90.5594 94.3375 91.9427 95.7205 91.9427 97.4206V104.201C91.6935 104.189 91.4399 104.181 91.1764 104.181C87.1312 104.181 84.6872 105.763 83.01 107.141C81.8275 108.113 80.3009 108.305 78.9247 107.655C77.5669 107.013 76.7563 105.73 76.7563 104.223V94.3375H88.8593ZM204.973 134.448C202.395 142.522 195.959 148.328 185.844 151.705C181.72 153.081 177.304 153.779 172.717 153.779H110.186C105.6 153.779 101.183 153.081 97.0596 151.705C77.2448 145.09 76.4149 130.479 76.7907 125.281H91.943V126.079C91.943 131.176 96.0897 135.323 101.187 135.323C106.284 135.323 110.431 131.177 110.431 126.079V125.281H206.101C206.232 127.269 206.185 130.654 204.973 134.448ZM216.249 110.49V112.54C216.249 116.999 212.621 120.627 208.162 120.627H110.431V115.274C113.843 114.73 115.895 113.111 117.742 111.649C119.726 110.077 121.294 108.836 124.67 108.836C128.047 108.836 129.614 110.077 131.598 111.649C133.747 113.351 136.42 115.469 141.417 115.469C146.413 115.469 148.975 113.439 151.235 111.649C153.219 110.077 154.786 108.836 158.163 108.836C161.54 108.836 163.107 110.077 165.092 111.649C167.352 113.439 169.914 115.469 174.91 115.469C179.907 115.469 182.469 113.439 184.729 111.649C186.713 110.077 188.281 108.836 191.657 108.836C194.204 108.836 195.668 109.75 196.871 110.739C199.44 112.85 202.9 113.282 205.899 111.865C208.881 110.456 210.733 107.528 210.733 104.225V102.826C213.936 103.902 216.249 106.93 216.249 110.49ZM208.163 79.7327H74.7405C70.2816 79.7327 66.6538 76.1049 66.6538 71.646V69.5958C66.6538 65.1369 70.2816 61.5091 74.7405 61.5091H208.162C212.621 61.5091 216.249 65.1369 216.249 69.5958V71.646C216.249 76.1049 212.622 79.7327 208.163 79.7327Z" fill="#070D0D" fill-opacity="0.72"/>
</g>
<g filter="url(#filter1_d)">
<path d="M7.344 248.131V244.163H12.72V212.611L6.64 210.499L7.984 206.531L17.712 209.859V222.403C20.4853 220.611 23.28 219.715 26.096 219.715C30.0213 219.715 32.9013 220.59 34.736 222.339C36.6133 224.088 37.552 226.819 37.552 230.531V244.163H42.928V248.131H29.68V244.163H32.56V231.555C32.56 228.824 32.0053 226.862 30.896 225.667C29.8293 224.43 28.1227 223.811 25.776 223.811C24.368 223.811 22.9173 224.024 21.424 224.451C19.9307 224.835 18.6933 225.347 17.712 225.987V244.163H20.592V248.131H7.344Z" fill="#FF760C"/>
</g>
<g filter="url(#filter2_d)">
<path d="M65.32 248.96C63.0587 248.96 60.8827 248.661 58.792 248.064C56.7013 247.509 54.8453 246.613 53.224 245.376V212.544L47.144 210.432L48.488 206.464L58.152 209.792V221.696C60.7973 220.288 63.272 219.584 65.576 219.584C70.2267 219.584 73.6613 220.715 75.88 222.976C78.0987 225.237 79.208 228.757 79.208 233.536C79.208 238.827 78.0773 242.731 75.816 245.248C73.5973 247.723 70.0987 248.96 65.32 248.96ZM65.256 244.864C68.2853 244.864 70.504 243.947 71.912 242.112C73.3627 240.277 74.088 237.419 74.088 233.536C74.088 230.123 73.384 227.627 71.976 226.048C70.6107 224.469 68.456 223.68 65.512 223.68C63.208 223.68 60.7547 224.469 58.152 226.048V243.264C60.0293 244.331 62.3973 244.864 65.256 244.864ZM109.712 246.144C108.347 246.997 106.789 247.68 105.04 248.192C103.333 248.704 101.755 248.96 100.304 248.96C96.3787 248.96 93.4773 248.085 91.6 246.336C89.7653 244.587 88.848 241.856 88.848 238.144V224.512H83.472V220.544H93.84V237.12C93.84 239.851 94.3733 241.835 95.44 243.072C96.5493 244.267 98.2773 244.864 100.624 244.864C101.989 244.864 103.419 244.672 104.912 244.288C106.448 243.861 107.707 243.328 108.688 242.688V224.512H103.312V220.544H113.68V243.008L119.696 245.056L118.416 249.152L109.712 246.144ZM132.84 222.592C134.291 221.611 135.933 220.864 137.768 220.352C139.603 219.84 141.437 219.584 143.272 219.584C144.808 219.584 145.619 219.627 145.704 219.712L146.792 226.432L142.632 227.328L141.992 223.744C140.669 223.744 139.304 223.936 137.896 224.32C136.531 224.704 135.272 225.237 134.12 225.92V244.032H140.392V248H123.752V244.032H129.128V225.728L122.984 223.616L124.328 219.648L132.84 222.592ZM162.406 240.448C158.523 240.448 155.451 239.552 153.19 237.76C150.971 235.925 149.862 233.408 149.862 230.208C149.862 226.965 150.993 224.384 153.254 222.464C155.515 220.544 158.587 219.584 162.47 219.584C164.091 219.584 165.521 219.733 166.758 220.032C168.038 220.331 169.211 220.779 170.278 221.376L179.366 217.984L180.838 222.208L173.286 223.936C173.926 224.747 174.395 225.643 174.694 226.624C175.035 227.605 175.206 228.693 175.206 229.888C175.206 232.064 174.673 233.941 173.606 235.52C172.582 237.099 171.11 238.315 169.19 239.168C167.27 240.021 165.009 240.448 162.406 240.448ZM162.918 262.272C161.553 262.272 159.953 262.123 158.118 261.824C156.283 261.525 154.534 261.12 152.87 260.608C151.249 260.139 150.033 259.669 149.222 259.2L151.014 255.424C152.55 256.235 154.449 256.875 156.71 257.344C158.971 257.813 161.041 258.048 162.918 258.048C164.753 258.048 166.31 257.899 167.59 257.6C168.87 257.344 169.851 256.917 170.534 256.32C171.259 255.765 171.622 255.04 171.622 254.144C171.622 252.779 171.046 251.776 169.894 251.136C168.742 250.539 167.099 250.24 164.966 250.24H155.814V237.632L160.678 239.232V246.272H166.31C169.723 246.272 172.283 246.891 173.99 248.128C175.697 249.365 176.55 251.221 176.55 253.696C176.55 255.488 175.995 257.024 174.886 258.304C173.819 259.584 172.262 260.565 170.214 261.248C168.209 261.931 165.777 262.272 162.918 262.272ZM162.534 236.352C164.881 236.352 166.737 235.755 168.102 234.56C169.467 233.365 170.15 231.851 170.15 230.016C170.15 228.011 169.51 226.453 168.23 225.344C166.95 224.235 165.051 223.68 162.534 223.68C160.017 223.68 158.118 224.235 156.838 225.344C155.558 226.453 154.918 228.011 154.918 230.016C154.918 231.851 155.601 233.365 156.966 234.56C158.331 235.755 160.187 236.352 162.534 236.352ZM209.712 246.144C208.347 246.997 206.789 247.68 205.04 248.192C203.333 248.704 201.755 248.96 200.304 248.96C196.379 248.96 193.477 248.085 191.6 246.336C189.765 244.587 188.848 241.856 188.848 238.144V224.512H183.472V220.544H193.84V237.12C193.84 239.851 194.373 241.835 195.44 243.072C196.549 244.267 198.277 244.864 200.624 244.864C201.989 244.864 203.419 244.672 204.912 244.288C206.448 243.861 207.707 243.328 208.688 242.688V224.512H203.312V220.544H213.68V243.008L219.696 245.056L218.416 249.152L209.712 246.144ZM248.294 244.736C246.587 246.187 244.838 247.253 243.046 247.936C241.254 248.619 239.249 248.96 237.03 248.96C234.043 248.96 231.441 248.384 229.222 247.232C227.003 246.037 225.275 244.352 224.038 242.176C222.843 240 222.246 237.355 222.246 234.24C222.246 231.296 222.822 228.736 223.974 226.56C225.126 224.341 226.747 222.635 228.838 221.44C230.971 220.203 233.425 219.584 236.198 219.584C238.801 219.584 241.019 220.139 242.854 221.248C244.689 222.357 246.097 223.915 247.078 225.92C248.102 227.925 248.614 230.272 248.614 232.96C248.614 233.344 248.593 233.749 248.55 234.176C248.55 234.56 248.529 234.965 248.486 235.392L227.174 235.52C227.259 237.696 227.771 239.467 228.71 240.832C229.649 242.197 230.822 243.2 232.23 243.84C233.681 244.48 235.217 244.8 236.838 244.8C238.673 244.8 240.337 244.544 241.83 244.032C243.366 243.52 244.753 242.752 245.99 241.728L248.294 244.736ZM243.686 231.488C243.643 229.099 242.939 227.179 241.574 225.728C240.251 224.235 238.481 223.488 236.262 223.488C234.001 223.488 232.017 224.235 230.31 225.728C228.603 227.179 227.579 229.12 227.238 231.552L243.686 231.488ZM261.778 222.592C263.228 221.611 264.871 220.864 266.706 220.352C268.54 219.84 270.375 219.584 272.21 219.584C273.746 219.584 274.556 219.627 274.642 219.712L275.73 226.432L271.57 227.328L270.93 223.744C269.607 223.744 268.242 223.936 266.833 224.32C265.468 224.704 264.21 225.237 263.058 225.92V244.032H269.33V248H252.69V244.032H258.066V225.728L251.922 223.616L253.266 219.648L261.778 222.592Z" fill="#D7D7D7"/>
</g>
<defs>
<filter id="filter0_d" x="58" y="0" width="166.903" height="166.434" filterUnits="userSpaceOnUse" color-interpolation-filters="sRGB">
<feFlood flood-opacity="0" result="BackgroundImageFix"/>
<feColorMatrix in="SourceAlpha" type="matrix" values="0 0 0 0 0 0 0 0 0 0 0 0 0 0 0 0 0 0 127 0"/>
<feOffset dy="4"/>
<feGaussianBlur stdDeviation="2"/>
<feColorMatrix type="matrix" values="0 0 0 0 0.027451 0 0 0 0 0.0509804 0 0 0 0 0.0509804 0 0 0 0.25 0"/>
<feBlend mode="normal" in2="BackgroundImageFix" result="effect1_dropShadow"/>
<feBlend mode="normal" in="SourceGraphic" in2="effect1_dropShadow" result="shape"/>
</filter>
<filter id="filter1_d" x="0.640015" y="204.531" width="48.288" height="53.6" filterUnits="userSpaceOnUse" color-interpolation-filters="sRGB">
<feFlood flood-opacity="0" result="BackgroundImageFix"/>
<feColorMatrix in="SourceAlpha" type="matrix" values="0 0 0 0 0 0 0 0 0 0 0 0 0 0 0 0 0 0 127 0"/>
<feOffset dy="4"/>
<feGaussianBlur stdDeviation="3"/>
<feColorMatrix type="matrix" values="0 0 0 0 0.027451 0 0 0 0 0.0509804 0 0 0 0 0.0509804 0 0 0 0.25 0"/>
<feBlend mode="normal" in2="BackgroundImageFix" result="effect1_dropShadow"/>
<feBlend mode="normal" in="SourceGraphic" in2="effect1_dropShadow" result="shape"/>
</filter>
<filter id="filter2_d" x="41.144" y="204.464" width="240.585" height="67.808" filterUnits="userSpaceOnUse" color-interpolation-filters="sRGB">
<feFlood flood-opacity="0" result="BackgroundImageFix"/>
<feColorMatrix in="SourceAlpha" type="matrix" values="0 0 0 0 0 0 0 0 0 0 0 0 0 0 0 0 0 0 127 0"/>
<feOffset dy="4"/>
<feGaussianBlur stdDeviation="3"/>
<feColorMatrix type="matrix" values="0 0 0 0 0.027451 0 0 0 0 0.0509804 0 0 0 0 0.0509804 0 0 0 0.25 0"/>
<feBlend mode="normal" in2="BackgroundImageFix" result="effect1_dropShadow"/>
<feBlend mode="normal" in="SourceGraphic" in2="effect1_dropShadow" result="shape"/>
</filter>
</defs>
</svg>
